<svg xmlns="http://www.w3.org/2000/svg" width="54" height="18" fill="none" viewBox="0 0 54 18"><path fill="#e0e0e0" d="M1.092 4.004V14h6.944v-1.12H2.422V9.422h5.194v-1.12H2.422V5.124h5.572v-1.12Zm8.545 0V14h1.26V5.978h.028L16.147 14h1.456V4.004h-1.26v8.106h-.028L11.05 4.004Z"/><path fill="#333" d="M40.072 10.388V4.004h-1.33v6.384q0 1.344-.672 2.044-.658.686-1.932.686-1.344 0-2.058-.686-.714-.7-.714-2.044V4.004h-1.33v6.384q0 2.002 1.078 2.926 1.092.91 3.024.91 1.89 0 2.912-.952 1.022-.966 1.022-2.884m3.845-.518 1.694-4.662h.028l1.666 4.662Zm.994-5.866L41.02 14h1.358l1.12-3.01h4.228L48.819 14h1.47l-3.906-9.996ZM25.892 3.766l-4.13 10.458h1.008l4.144-10.458Z"/></svg>